<mxfile host="app.diagrams.net" modified="2024-02-17T01:25:34.668Z" agent="Mozilla/5.0 (Windows NT 10.0; Win64; x64) AppleWebKit/537.36 (KHTML, like Gecko) Chrome/121.0.0.0 Safari/537.36" etag="g14uDJV8JDfG94tv9s-X" version="23.1.5" type="device">
  <diagram name="Page-1" id="JJU_ogAzs2GNhb_vsoDj">
    <mxGraphModel dx="1050" dy="557" grid="1" gridSize="10" guides="1" tooltips="1" connect="1" arrows="1" fold="1" page="1" pageScale="1" pageWidth="827" pageHeight="1169" math="0" shadow="0">
      <root>
        <mxCell id="0" />
        <mxCell id="1" parent="0" />
        <mxCell id="QOUM4ZJHpKF3tyCzdDPT-1" value="" style="ellipse;whiteSpace=wrap;html=1;aspect=fixed;" vertex="1" parent="1">
          <mxGeometry x="374" y="30" width="96" height="96" as="geometry" />
        </mxCell>
        <mxCell id="QOUM4ZJHpKF3tyCzdDPT-2" value="" style="ellipse;whiteSpace=wrap;html=1;aspect=fixed;" vertex="1" parent="1">
          <mxGeometry x="370" y="220" width="94" height="94" as="geometry" />
        </mxCell>
        <mxCell id="QOUM4ZJHpKF3tyCzdDPT-3" value="" style="ellipse;whiteSpace=wrap;html=1;aspect=fixed;" vertex="1" parent="1">
          <mxGeometry x="374" y="400" width="90" height="90" as="geometry" />
        </mxCell>
        <mxCell id="QOUM4ZJHpKF3tyCzdDPT-4" value="" style="ellipse;whiteSpace=wrap;html=1;aspect=fixed;" vertex="1" parent="1">
          <mxGeometry x="374" y="580" width="90" height="90" as="geometry" />
        </mxCell>
        <mxCell id="QOUM4ZJHpKF3tyCzdDPT-10" value="" style="endArrow=classic;html=1;rounded=0;" edge="1" parent="1">
          <mxGeometry relative="1" as="geometry">
            <mxPoint x="418.5" y="490" as="sourcePoint" />
            <mxPoint x="418.5" y="580" as="targetPoint" />
          </mxGeometry>
        </mxCell>
        <mxCell id="QOUM4ZJHpKF3tyCzdDPT-11" value="&lt;font style=&quot;font-size: 14px;&quot;&gt;1.0&lt;br&gt;&lt;br&gt;Login&lt;/font&gt;" style="text;html=1;align=center;verticalAlign=middle;whiteSpace=wrap;rounded=0;" vertex="1" parent="1">
          <mxGeometry x="392" y="63" width="60" height="30" as="geometry" />
        </mxCell>
        <mxCell id="QOUM4ZJHpKF3tyCzdDPT-12" value="&lt;font style=&quot;font-size: 14px;&quot;&gt;2.0&lt;br&gt;&lt;br&gt;Product&lt;br&gt;Order&lt;/font&gt;" style="text;html=1;align=center;verticalAlign=middle;whiteSpace=wrap;rounded=0;" vertex="1" parent="1">
          <mxGeometry x="389" y="250" width="60" height="30" as="geometry" />
        </mxCell>
        <mxCell id="QOUM4ZJHpKF3tyCzdDPT-13" value="&lt;font style=&quot;font-size: 14px;&quot;&gt;3.0&lt;br&gt;&lt;br&gt;Feedback&lt;br&gt;Message&lt;/font&gt;" style="text;html=1;align=center;verticalAlign=middle;whiteSpace=wrap;rounded=0;" vertex="1" parent="1">
          <mxGeometry x="389" y="430" width="60" height="30" as="geometry" />
        </mxCell>
        <mxCell id="QOUM4ZJHpKF3tyCzdDPT-14" value="&lt;font style=&quot;font-size: 14px;&quot;&gt;4.0&lt;br&gt;&lt;br&gt;Payment&lt;/font&gt;" style="text;html=1;align=center;verticalAlign=middle;whiteSpace=wrap;rounded=0;" vertex="1" parent="1">
          <mxGeometry x="389" y="610" width="60" height="30" as="geometry" />
        </mxCell>
        <mxCell id="QOUM4ZJHpKF3tyCzdDPT-15" value="" style="rounded=0;whiteSpace=wrap;html=1;" vertex="1" parent="1">
          <mxGeometry x="60" y="55" width="120" height="60" as="geometry" />
        </mxCell>
        <mxCell id="QOUM4ZJHpKF3tyCzdDPT-16" value="&lt;font style=&quot;font-size: 18px;&quot;&gt;User&lt;/font&gt;" style="text;html=1;align=center;verticalAlign=middle;whiteSpace=wrap;rounded=0;" vertex="1" parent="1">
          <mxGeometry x="90" y="70" width="60" height="30" as="geometry" />
        </mxCell>
        <mxCell id="QOUM4ZJHpKF3tyCzdDPT-17" value="" style="shape=partialRectangle;whiteSpace=wrap;html=1;bottom=1;right=1;left=1;top=0;fillColor=none;routingCenterX=-0.5;direction=south;" vertex="1" parent="1">
          <mxGeometry x="660" y="55" width="100" height="60" as="geometry" />
        </mxCell>
        <mxCell id="QOUM4ZJHpKF3tyCzdDPT-18" value="" style="shape=partialRectangle;whiteSpace=wrap;html=1;bottom=1;right=1;left=1;top=0;fillColor=none;routingCenterX=-0.5;direction=south;" vertex="1" parent="1">
          <mxGeometry x="660" y="235" width="100" height="60" as="geometry" />
        </mxCell>
        <mxCell id="QOUM4ZJHpKF3tyCzdDPT-19" value="" style="shape=partialRectangle;whiteSpace=wrap;html=1;bottom=1;right=1;left=1;top=0;fillColor=none;routingCenterX=-0.5;direction=south;" vertex="1" parent="1">
          <mxGeometry x="660" y="415" width="100" height="60" as="geometry" />
        </mxCell>
        <mxCell id="QOUM4ZJHpKF3tyCzdDPT-20" value="" style="shape=partialRectangle;whiteSpace=wrap;html=1;bottom=1;right=1;left=1;top=0;fillColor=none;routingCenterX=-0.5;direction=south;" vertex="1" parent="1">
          <mxGeometry x="660" y="595" width="100" height="60" as="geometry" />
        </mxCell>
        <mxCell id="QOUM4ZJHpKF3tyCzdDPT-21" value="" style="endArrow=classic;html=1;rounded=0;" edge="1" parent="1">
          <mxGeometry relative="1" as="geometry">
            <mxPoint x="180" y="60" as="sourcePoint" />
            <mxPoint x="380" y="60" as="targetPoint" />
          </mxGeometry>
        </mxCell>
        <mxCell id="QOUM4ZJHpKF3tyCzdDPT-25" value="" style="endArrow=classic;html=1;rounded=0;exitX=0.95;exitY=0.34;exitDx=0;exitDy=0;exitPerimeter=0;" edge="1" parent="1" source="QOUM4ZJHpKF3tyCzdDPT-1">
          <mxGeometry relative="1" as="geometry">
            <mxPoint x="460" y="60" as="sourcePoint" />
            <mxPoint x="660" y="63" as="targetPoint" />
          </mxGeometry>
        </mxCell>
        <mxCell id="QOUM4ZJHpKF3tyCzdDPT-27" value="" style="endArrow=classic;html=1;rounded=0;" edge="1" parent="1">
          <mxGeometry relative="1" as="geometry">
            <mxPoint x="460" y="250" as="sourcePoint" />
            <mxPoint x="660" y="250" as="targetPoint" />
          </mxGeometry>
        </mxCell>
        <mxCell id="QOUM4ZJHpKF3tyCzdDPT-28" value="" style="endArrow=classic;html=1;rounded=0;" edge="1" parent="1">
          <mxGeometry relative="1" as="geometry">
            <mxPoint x="460" y="430" as="sourcePoint" />
            <mxPoint x="660" y="430" as="targetPoint" />
          </mxGeometry>
        </mxCell>
        <mxCell id="QOUM4ZJHpKF3tyCzdDPT-29" value="" style="endArrow=classic;html=1;rounded=0;" edge="1" parent="1">
          <mxGeometry relative="1" as="geometry">
            <mxPoint x="460" y="610" as="sourcePoint" />
            <mxPoint x="660" y="610" as="targetPoint" />
          </mxGeometry>
        </mxCell>
        <mxCell id="QOUM4ZJHpKF3tyCzdDPT-30" value="" style="endArrow=classic;html=1;rounded=0;entryX=0.978;entryY=0.651;entryDx=0;entryDy=0;entryPerimeter=0;" edge="1" parent="1" target="QOUM4ZJHpKF3tyCzdDPT-2">
          <mxGeometry relative="1" as="geometry">
            <mxPoint x="660" y="280" as="sourcePoint" />
            <mxPoint x="500" y="280" as="targetPoint" />
          </mxGeometry>
        </mxCell>
        <mxCell id="QOUM4ZJHpKF3tyCzdDPT-31" value="" style="endArrow=classic;html=1;rounded=0;entryX=0.978;entryY=0.651;entryDx=0;entryDy=0;entryPerimeter=0;" edge="1" parent="1">
          <mxGeometry relative="1" as="geometry">
            <mxPoint x="660" y="461" as="sourcePoint" />
            <mxPoint x="462" y="460" as="targetPoint" />
          </mxGeometry>
        </mxCell>
        <mxCell id="QOUM4ZJHpKF3tyCzdDPT-32" value="" style="endArrow=classic;html=1;rounded=0;entryX=0.978;entryY=0.651;entryDx=0;entryDy=0;entryPerimeter=0;" edge="1" parent="1">
          <mxGeometry relative="1" as="geometry">
            <mxPoint x="662" y="641" as="sourcePoint" />
            <mxPoint x="464" y="640" as="targetPoint" />
          </mxGeometry>
        </mxCell>
        <mxCell id="QOUM4ZJHpKF3tyCzdDPT-33" value="" style="endArrow=classic;html=1;rounded=0;entryX=0.978;entryY=0.651;entryDx=0;entryDy=0;entryPerimeter=0;" edge="1" parent="1">
          <mxGeometry relative="1" as="geometry">
            <mxPoint x="660" y="90" as="sourcePoint" />
            <mxPoint x="470" y="90" as="targetPoint" />
          </mxGeometry>
        </mxCell>
        <mxCell id="QOUM4ZJHpKF3tyCzdDPT-34" value="" style="endArrow=classic;html=1;rounded=0;exitX=0.917;exitY=0.993;exitDx=0;exitDy=0;exitPerimeter=0;" edge="1" parent="1" source="QOUM4ZJHpKF3tyCzdDPT-15">
          <mxGeometry relative="1" as="geometry">
            <mxPoint x="170" y="120" as="sourcePoint" />
            <mxPoint x="370" y="260" as="targetPoint" />
            <Array as="points">
              <mxPoint x="170" y="190" />
              <mxPoint x="170" y="260" />
              <mxPoint x="270" y="260" />
            </Array>
          </mxGeometry>
        </mxCell>
        <mxCell id="QOUM4ZJHpKF3tyCzdDPT-38" value="" style="endArrow=classic;html=1;rounded=0;entryX=0.75;entryY=1;entryDx=0;entryDy=0;" edge="1" parent="1" target="QOUM4ZJHpKF3tyCzdDPT-15">
          <mxGeometry relative="1" as="geometry">
            <mxPoint x="370" y="280" as="sourcePoint" />
            <mxPoint x="140" y="120" as="targetPoint" />
            <Array as="points">
              <mxPoint x="150" y="280" />
              <mxPoint x="150" y="200" />
            </Array>
          </mxGeometry>
        </mxCell>
        <mxCell id="QOUM4ZJHpKF3tyCzdDPT-39" value="" style="endArrow=classic;html=1;rounded=0;exitX=0.5;exitY=1;exitDx=0;exitDy=0;entryX=0.018;entryY=0.278;entryDx=0;entryDy=0;entryPerimeter=0;" edge="1" parent="1" source="QOUM4ZJHpKF3tyCzdDPT-15" target="QOUM4ZJHpKF3tyCzdDPT-3">
          <mxGeometry relative="1" as="geometry">
            <mxPoint x="157" y="280" as="sourcePoint" />
            <mxPoint x="370" y="426" as="targetPoint" />
            <Array as="points">
              <mxPoint x="120" y="426" />
              <mxPoint x="270" y="426" />
            </Array>
          </mxGeometry>
        </mxCell>
        <mxCell id="QOUM4ZJHpKF3tyCzdDPT-40" value="" style="endArrow=classic;html=1;rounded=0;exitX=0.018;exitY=0.66;exitDx=0;exitDy=0;exitPerimeter=0;" edge="1" parent="1">
          <mxGeometry relative="1" as="geometry">
            <mxPoint x="373.9999999999999" y="459.4" as="sourcePoint" />
            <mxPoint x="110" y="119" as="targetPoint" />
            <Array as="points">
              <mxPoint x="178.38" y="460" />
              <mxPoint x="110" y="460" />
              <mxPoint x="110" y="290" />
            </Array>
          </mxGeometry>
        </mxCell>
        <mxCell id="QOUM4ZJHpKF3tyCzdDPT-41" value="" style="endArrow=classic;html=1;rounded=0;" edge="1" parent="1">
          <mxGeometry relative="1" as="geometry">
            <mxPoint x="90" y="120" as="sourcePoint" />
            <mxPoint x="374" y="610" as="targetPoint" />
            <Array as="points">
              <mxPoint x="90" y="360" />
              <mxPoint x="90" y="610" />
              <mxPoint x="274" y="610" />
            </Array>
          </mxGeometry>
        </mxCell>
        <mxCell id="QOUM4ZJHpKF3tyCzdDPT-42" value="" style="endArrow=classic;html=1;rounded=0;exitX=0.044;exitY=0.669;exitDx=0;exitDy=0;exitPerimeter=0;entryX=0.097;entryY=1.06;entryDx=0;entryDy=0;entryPerimeter=0;" edge="1" parent="1" source="QOUM4ZJHpKF3tyCzdDPT-4" target="QOUM4ZJHpKF3tyCzdDPT-15">
          <mxGeometry relative="1" as="geometry">
            <mxPoint x="316.02" y="639.4" as="sourcePoint" />
            <mxPoint x="60" y="299" as="targetPoint" />
            <Array as="points">
              <mxPoint x="120.4000000000001" y="640" />
              <mxPoint x="70" y="640" />
              <mxPoint x="70" y="380" />
            </Array>
          </mxGeometry>
        </mxCell>
        <mxCell id="QOUM4ZJHpKF3tyCzdDPT-44" value="" style="endArrow=classic;html=1;rounded=0;entryX=0.978;entryY=0.651;entryDx=0;entryDy=0;entryPerimeter=0;exitX=0.033;exitY=0.631;exitDx=0;exitDy=0;exitPerimeter=0;" edge="1" parent="1" source="QOUM4ZJHpKF3tyCzdDPT-1">
          <mxGeometry relative="1" as="geometry">
            <mxPoint x="370" y="90" as="sourcePoint" />
            <mxPoint x="180" y="90" as="targetPoint" />
          </mxGeometry>
        </mxCell>
        <mxCell id="QOUM4ZJHpKF3tyCzdDPT-45" value="&lt;font style=&quot;font-size: 14px;&quot;&gt;Login&lt;/font&gt;" style="text;html=1;align=center;verticalAlign=middle;whiteSpace=wrap;rounded=0;" vertex="1" parent="1">
          <mxGeometry x="670" y="70" width="60" height="30" as="geometry" />
        </mxCell>
        <mxCell id="QOUM4ZJHpKF3tyCzdDPT-46" value="&lt;font style=&quot;font-size: 14px;&quot;&gt;Order&lt;/font&gt;" style="text;html=1;align=center;verticalAlign=middle;whiteSpace=wrap;rounded=0;" vertex="1" parent="1">
          <mxGeometry x="670" y="250" width="60" height="30" as="geometry" />
        </mxCell>
        <mxCell id="QOUM4ZJHpKF3tyCzdDPT-47" value="&lt;font style=&quot;font-size: 14px;&quot;&gt;Feedback&lt;/font&gt;" style="text;html=1;align=center;verticalAlign=middle;whiteSpace=wrap;rounded=0;" vertex="1" parent="1">
          <mxGeometry x="680" y="430" width="60" height="30" as="geometry" />
        </mxCell>
        <mxCell id="QOUM4ZJHpKF3tyCzdDPT-48" value="&lt;font style=&quot;font-size: 14px;&quot;&gt;Payment&lt;/font&gt;" style="text;html=1;align=center;verticalAlign=middle;whiteSpace=wrap;rounded=0;" vertex="1" parent="1">
          <mxGeometry x="680" y="610" width="60" height="30" as="geometry" />
        </mxCell>
        <mxCell id="QOUM4ZJHpKF3tyCzdDPT-50" value="Response" style="text;html=1;align=center;verticalAlign=middle;whiteSpace=wrap;rounded=0;" vertex="1" parent="1">
          <mxGeometry x="260" y="85" width="60" height="30" as="geometry" />
        </mxCell>
        <mxCell id="QOUM4ZJHpKF3tyCzdDPT-52" value="&lt;font style=&quot;font-size: 12px;&quot;&gt;Request for login&lt;/font&gt;" style="text;html=1;align=center;verticalAlign=middle;whiteSpace=wrap;rounded=0;" vertex="1" parent="1">
          <mxGeometry x="240" y="30" width="100" height="30" as="geometry" />
        </mxCell>
        <mxCell id="QOUM4ZJHpKF3tyCzdDPT-56" value="Request Verify" style="text;html=1;align=center;verticalAlign=middle;whiteSpace=wrap;rounded=0;" vertex="1" parent="1">
          <mxGeometry x="520" y="30" width="90" height="30" as="geometry" />
        </mxCell>
        <mxCell id="QOUM4ZJHpKF3tyCzdDPT-57" value="Confirmation" style="text;html=1;align=center;verticalAlign=middle;whiteSpace=wrap;rounded=0;" vertex="1" parent="1">
          <mxGeometry x="530" y="85" width="60" height="30" as="geometry" />
        </mxCell>
        <mxCell id="QOUM4ZJHpKF3tyCzdDPT-58" value="Request for order" style="text;html=1;align=center;verticalAlign=middle;whiteSpace=wrap;rounded=0;" vertex="1" parent="1">
          <mxGeometry x="240" y="230" width="100" height="30" as="geometry" />
        </mxCell>
        <mxCell id="QOUM4ZJHpKF3tyCzdDPT-59" value="Verify Order" style="text;html=1;align=center;verticalAlign=middle;whiteSpace=wrap;rounded=0;" vertex="1" parent="1">
          <mxGeometry x="520" y="220" width="70" height="30" as="geometry" />
        </mxCell>
        <mxCell id="QOUM4ZJHpKF3tyCzdDPT-60" value="Confirmation of order" style="text;html=1;align=center;verticalAlign=middle;whiteSpace=wrap;rounded=0;" vertex="1" parent="1">
          <mxGeometry x="530" y="284" width="60" height="30" as="geometry" />
        </mxCell>
        <mxCell id="QOUM4ZJHpKF3tyCzdDPT-61" value="Response of order" style="text;html=1;align=center;verticalAlign=middle;whiteSpace=wrap;rounded=0;" vertex="1" parent="1">
          <mxGeometry x="235" y="280" width="110" height="30" as="geometry" />
        </mxCell>
        <mxCell id="QOUM4ZJHpKF3tyCzdDPT-62" value="Sending feedback" style="text;html=1;align=center;verticalAlign=middle;whiteSpace=wrap;rounded=0;" vertex="1" parent="1">
          <mxGeometry x="215" y="400" width="110" height="30" as="geometry" />
        </mxCell>
        <mxCell id="QOUM4ZJHpKF3tyCzdDPT-63" value="Feedback stored" style="text;html=1;align=center;verticalAlign=middle;whiteSpace=wrap;rounded=0;" vertex="1" parent="1">
          <mxGeometry x="505" y="400" width="100" height="30" as="geometry" />
        </mxCell>
        <mxCell id="QOUM4ZJHpKF3tyCzdDPT-64" value="Response of feedback" style="text;html=1;align=center;verticalAlign=middle;whiteSpace=wrap;rounded=0;" vertex="1" parent="1">
          <mxGeometry x="530" y="470" width="60" height="30" as="geometry" />
        </mxCell>
        <mxCell id="QOUM4ZJHpKF3tyCzdDPT-65" value="Feedback response" style="text;html=1;align=center;verticalAlign=middle;whiteSpace=wrap;rounded=0;" vertex="1" parent="1">
          <mxGeometry x="215" y="460" width="110" height="30" as="geometry" />
        </mxCell>
        <mxCell id="QOUM4ZJHpKF3tyCzdDPT-66" value="Request Payment" style="text;html=1;align=center;verticalAlign=middle;whiteSpace=wrap;rounded=0;" vertex="1" parent="1">
          <mxGeometry x="205" y="585" width="110" height="30" as="geometry" />
        </mxCell>
        <mxCell id="QOUM4ZJHpKF3tyCzdDPT-67" value="Verify payment" style="text;html=1;align=center;verticalAlign=middle;whiteSpace=wrap;rounded=0;" vertex="1" parent="1">
          <mxGeometry x="510" y="580" width="100" height="30" as="geometry" />
        </mxCell>
        <mxCell id="QOUM4ZJHpKF3tyCzdDPT-68" value="Confirmation payment" style="text;html=1;align=center;verticalAlign=middle;whiteSpace=wrap;rounded=0;" vertex="1" parent="1">
          <mxGeometry x="505" y="640" width="120" height="30" as="geometry" />
        </mxCell>
        <mxCell id="QOUM4ZJHpKF3tyCzdDPT-69" value="Payment response" style="text;html=1;align=center;verticalAlign=middle;whiteSpace=wrap;rounded=0;" vertex="1" parent="1">
          <mxGeometry x="200" y="640" width="120" height="30" as="geometry" />
        </mxCell>
        <mxCell id="QOUM4ZJHpKF3tyCzdDPT-71" value="" style="endArrow=classic;html=1;rounded=0;" edge="1" parent="1">
          <mxGeometry relative="1" as="geometry">
            <mxPoint x="417" y="130" as="sourcePoint" />
            <mxPoint x="416.5" y="220" as="targetPoint" />
          </mxGeometry>
        </mxCell>
        <mxCell id="QOUM4ZJHpKF3tyCzdDPT-74" value="" style="endArrow=classic;html=1;rounded=0;exitX=0.5;exitY=1;exitDx=0;exitDy=0;entryX=0.5;entryY=0;entryDx=0;entryDy=0;" edge="1" parent="1" source="QOUM4ZJHpKF3tyCzdDPT-2" target="QOUM4ZJHpKF3tyCzdDPT-3">
          <mxGeometry relative="1" as="geometry">
            <mxPoint x="416.5" y="320" as="sourcePoint" />
            <mxPoint x="416.5" y="395" as="targetPoint" />
          </mxGeometry>
        </mxCell>
      </root>
    </mxGraphModel>
  </diagram>
</mxfile>
